<?xml version="1.0" encoding="UTF-8"?>
<svg version="1.1" viewBox="0 0 1762 1116" width="1762" height="1116" xmlns="http://www.w3.org/2000/svg">
<path transform="translate(259,238)" d="m0 0h226l8 3 6 4 6 9 2 5v14l-5 10-8 7-5 2h-12l1 76 1 42 19 32 8 13 93 155 17 28 14 24 10 17 21 35 6 13 4 14 2 11v31l-5 21-6 15-9 16-8 10-9 10-11 10-16 10-17 8-20 6-14 2h-381l-20-4-15-5-19-10-13-10-10-9-10-12-9-15-6-14-5-17-2-21 1-21 4-17 6-15 11-20 12-19 10-17 39-65 17-28 19-32 17-28 19-32 17-28 19-32 4-8 1-4 1-116-6 1-10-2-8-6-4-6-2-6v-14l5-10 5-5 6-4zm59 54v120l-4 14-9 17-11 18-15 25-16 27-10 17-68 112-39 65-15 24-8 16-3 9-1 5v19l4 15 8 15 11 12 13 9 15 7 11 3 7 1 33 1h304l24-1 15-3 13-5 13-7 11-9 10-12 7-14 4-13 1-6v-8l-3-17-5-11-9-16-10-16-12-21-12-20-14-23-34-56-12-20-17-28-13-22-13-21-12-20-16-27-10-18-4-11-1-6-1-120z" fill="#0A203E"/>
<path transform="translate(248,633)" d="m0 0h115l11 4 10 9 9 9 8 7 12 9 14 7 15 4 11 1 74 1 10 2 8 4 9 9 15 25 11 19 5 11 2 16-3 13-7 13-7 8-13 8-9 3-12 1h-278l-67-1-11-4-11-8-8-10-4-10-2-9v-10l3-12 7-14 11-17 24-40 8-13 9-14 8-10 8-6 10-4z" fill="#B5CA3F"/>
<path transform="translate(1110,462)" d="m0 0h18l27 3 24 4h21l16-1 6 2 4 7 1 5v12l-4 9-3 3-13 4 8 16 2 9v23l-4 16-7 14-12 13-10 7-10 5-16 5-21 3h-27l-22-3h-6l-4 4-2 8 3 9 6 4 12 3 14 1 52 1 18 3 16 6 10 7 9 9 7 14 3 13v18l-3 12-5 12-9 12-12 10-15 8-15 5-20 4-18 2h-37l-26-3-19-5-16-8-10-8-7-10-4-11-1-4v-15l4-14 7-11 6-7 13-9 4-2h3l-3-3-6-5-4-6-4-13v-13l3-12 6-10 9-8 2-2-9-6-7-7-6-10-5-12-2-10-1-20 3-18 5-13 6-11 11-12 8-6 17-9 17-5 11-2zm-1 44-14 3-12 6-7 8-5 11-1 5v11l3 11 6 9 8 6 12 4 14 2h13l17-3 12-6 5-4 6-10 2-10-1-14-3-9-7-9-9-6-11-4-7-1zm-10 183-16 2-10 5-6 7-3 8v7l3 9 4 5 12 6 17 3h28l19-3 11-4 10-6 5-7 2-8-1-8-5-8-8-4-9-2-36-2z" fill="#0B213F"/>
<path transform="translate(729,461)" d="m0 0h27l20 3 15 4 16 8 12 11 7 11 5 12 3 15 1 22v134l-3 6-8 2h-22l-7-2-4-5-3-9-15 10-17 7-13 3-8 1h-30l-17-3-13-5-10-6-11-9-9-13-5-12-3-13v-21l4-16 6-12 9-10 7-6 16-8 19-5 7-1 20-1h35l22 1-1-19-3-10-6-8-7-4-9-3-6-1h-30l-27 4-26 6h-8l-5-3-3-12v-22l3-7 16-5 22-5 23-3zm-5 130-17 4-8 5-4 5-4 11v11l3 9 6 7 10 5 14 3h15l19-3 13-5 9-6 2-3v-43z" fill="#0B213F"/>
<path transform="translate(1354,462)" d="m0 0 21 1 22 4 20 8 15 10 6 5 9 11 8 13 8 20 4 20 1 15v17l-1 17-4 20-6 16-9 16-11 13-13 10-15 8-15 5-21 4h-35l-17-3-16-5-14-7-10-8-7-6-8-10-6-10-5-10-6-20-3-20v-33l3-20 4-15 5-12 6-11 7-9 6-7 13-10 16-8 15-5 15-3zm-7 46-13 3-12 6-9 9-7 14-4 13-2 14v24l2 14 5 16 5 10 6 7 9 6 11 4 10 2h19l16-4 9-5 6-5 7-10 5-13 3-17v-35l-3-15-5-13-7-10-9-7-11-5-12-3z" fill="#0B213F"/>
<path transform="translate(1608,462)" d="m0 0h25l21 4 16 7 12 9 7 8 8 14 4 14 2 12 1 61v66l-1 26-4 4-7 2h-30l-8-3-3-4-1-4-1-132-3-15-5-10-7-6-9-4-10-2h-13l-19 3-15 5-14 8-3 1v152l-2 7-5 3-6 1h-29l-7-2-3-4-1-5v-201l2-5 5-3 8-1h12l13 1 5 5 2 5 1 7 4-2 13-9 13-6 13-4z" fill="#0C213F"/>
<path transform="translate(978,466)" d="m0 0h21l5 2 3 3 2 7v18l-3 15-1 2-9 1h-9l-22 3-16 5-13 7-6 5-2 3-1 142-3 7-3 2-5 1h-31l-9-3-2-5-1-8v-195l3-7 5-2 16-1 16 1 4 2 4 8 1 3v9l11-9 10-6 15-6 13-3z" fill="#0A203E"/>
<path transform="translate(391,108)" d="m0 0h11l13 3 11 6 10 9 7 10 4 9 2 11v8l-3 14-6 12-10 11-10 6-11 4-6 1h-15l-12-3-10-5-9-8-9-14-3-9-1-6v-14l3-12 7-13 6-7 10-7 9-4z" fill="#B5CA3F"/>
<path transform="translate(1593,967)" d="m0 0h25l8 10 15 20 10 14 9 12 6 9 4 4-1-2v-67h23l1 2v107h-25l-9-13-28-38-13-19-2-1 1 4v67h-24z" fill="#B4C93F"/>
<path transform="translate(1492,964)" d="m0 0h9l15 3 14 7 11 10 7 12 3 9 1 5v21l-3 12-7 13-8 9-10 7-13 5-6 1h-20l-15-4-12-7-7-7-7-11-5-13-1-6v-16l4-15 5-10 8-10 11-8 12-5zm-2 22-11 4-6 4-4 5-5 12-1 6v9l3 12 7 10 9 6 10 3h7l12-4 10-9 5-12 1-5v-11l-3-11-6-9-7-6-11-4z" fill="#B4C93F"/>
<path transform="translate(861,967)" d="m0 0h51l16 4 10 5 5 4v2h2l6 8 5 10 3 16v12l-4 16-6 12-10 10-14 7-13 3h-51zm23 21 1 68 22-1 10-3 8-6 5-7 3-12v-13l-4-12-7-8-4-3-10-3z" fill="#B5CA3F"/>
<path transform="translate(592,967)" d="m0 0h48l13 3 9 6 6 8 2 6v11l-4 10-7 6-4 1v2l6 1 8 9 4 10v9l-3 10-6 8-9 6-13 3h-50zm23 19-1 1v26h12l12-2 6-4 3-5-1-9-5-5-9-2zm-1 43v27h24l8-3 3-4 1-9-3-6-6-4-7-1z" fill="#0C223F"/>
<path transform="translate(1292,964)" d="m0 0h8l13 3 9 5 7 6 6 12 1 6-5 2-17 4-6-11-7-4-10-1-7 2-4 4-1 7 5 5 11 4 17 5 12 6 9 8 4 9 1 12-2 9-7 10-8 6-10 4-6 1h-17l-14-3-11-6-8-9-5-10v-4l20-5 4 1 3 7 6 5 7 2h10l8-3 3-4v-8l-4-4-25-8-12-5-6-4-7-8-3-8v-14l4-9 7-8 8-5 10-3z" fill="#B5C93F"/>
<path transform="translate(84,967)" d="m0 0h29l4 14 15 39 21 56h-26l-3-8-4-12v-2l-8 1h-37l-1 7-5 14h-26l10-26 24-64zm14 24-6 16-8 23-2 6h32l-15-45z" fill="#0D2340"/>
<path transform="translate(495,967)" d="m0 0h27l8 22 31 81 2 6h-26l-7-21h-44l-6 20-1 1h-25l2-6 12-31 14-38 11-29zm12 25-6 19-8 23v2h31l-3-10-12-34z" fill="#0E2341"/>
<path transform="translate(735,965)" d="m0 0h19l13 4 10 9 4 8 2 6v4l-11 3-10 2-4-10-6-4-4-1h-9l-6 3-3 4v7l4 5 33 11 10 7 6 10 2 7v7l-4 13-6 8-9 6-9 3-6 1h-13l-12-2-14-7-6-7-4-9-1-7 20-5h2l3 9 5 4 9 3h8l9-3 3-5v-9l-6-4-27-9-10-5-6-5-5-10-1-4v-10l4-11 7-9 14-7z" fill="#0C2240"/>
<path transform="translate(1043,967)" d="m0 0h28l10 28 10 27 7 19v3h2l2-9 18-49 7-19h26l-3 10-15 39-13 33-10 26-1 1h-26l-8-22-11-28-18-47z" fill="#B5CA3F"/>
<path transform="translate(428,578)" d="m0 0h15l10 4 8 6 7 9 3 11v8l-4 13-7 9-7 5-13 4h-11l-12-4-9-7-7-13-1-4v-14l4-10 9-10 12-6z" fill="#B5CA3F"/>
<path transform="translate(452,23)" d="m0 0h13l10 4 8 6 6 8 4 9v16l-5 12-4 5-9 6-11 4h-11l-10-3-11-8-6-10-2-7v-14l5-12 9-10 10-5z" fill="#B5CA3F"/>
<path transform="translate(358,967)" d="m0 0h25v89l2-1h46v22l-73-1z" fill="#0B213F"/>
<path transform="translate(720,367)" d="m0 0h16l10 4 8 6 6 10 3 10v9l-4 13-7 9-10 6-8 3h-16l-12-5-7-6-5-8-3-11v-8l4-13 6-8 8-7zm5 24-6 3-3 5v7l4 5 5 2 6-1 5-5 1-6-3-7-6-3z" fill="#0C2240"/>
<path transform="translate(356,490)" d="m0 0h13l11 4 8 7 5 10 1 5v8l-4 11-6 8-9 6-5 2h-15l-8-3-9-8-5-10-1-3v-14l4-10 4-5 10-6z" fill="#B5CA3F"/>
<path transform="translate(1186,967)" d="m0 0h25v109h-24l-1-1z" fill="#B4C93E"/>
<path transform="translate(990,966)" d="m0 0 24 1 1 108-1 1-24 1z" fill="#B3C83F"/>
<path transform="translate(226,967)" d="m0 0h24l1 109h-25z" fill="#0A203E"/>
<path transform="translate(1376,967)" d="m0 0h24v109h-24z" fill="#B3C83E"/>
<path transform="translate(185,1051)" d="m0 0 8 2 5 6 1 2v7l-4 6-6 4h-7l-6-3-4-6v-8l4-6 5-3z" fill="#0D2341"/>
<path transform="translate(291,1051)" d="m0 0 8 2 4 5 1 2v10l-5 6-4 2h-9l-6-5-2-4v-9l4-6z" fill="#0F2542"/>
</svg>